
<svg xmlns="http://www.w3.org/2000/svg" width="64" height="64" viewBox="0 0 64 64">
  <g fill="none">
    <path fill="#5AB963" d="M58.375,3.75 L56.283375,3.75 L56.283375,1.875 C56.283375,0.8395 55.443875,0 54.408375,0 C53.372875,0 52.533375,0.8395 52.533375,1.875 L52.533375,3.75 L41.158375,3.75 L41.158375,1.875 C41.158375,0.8395 40.318875,0 39.283375,0 C38.247875,0 37.408375,0.8395 37.408375,1.875 L37.408375,3.75 L26.158375,3.75 L26.158375,1.875 C26.158375,0.8395 25.318875,0 24.283375,0 C23.247875,0 22.408375,0.8395 22.408375,1.875 L22.408375,3.75 L11.033375,3.75 L11.033375,1.875 C11.033375,0.8395 10.193875,0 9.158375,0 C8.122875,0 7.283375,0.8395 7.283375,1.875 L7.283375,3.75 L5.625,3.75 C2.523375,3.75 0,6.273375 0,9.375 C0,11.439625 0,55.71575 0,58.375 C0,61.476625 2.523375,64 5.625,64 L58.375,64 C61.476625,64 64,61.476625 64,58.375 C64,55.71575 64,11.439625 64,9.375 C64,6.273375 61.476625,3.75 58.375,3.75 Z M60.25,58.375 C60.25,59.408875 59.408875,60.25 58.375,60.25 L51.56,60.25 L60.25,51.56 L60.25,58.375 Z M48.908375,57.598375 L48.908375,49 L57.50675,49 L48.908375,57.598375 Z M60.25,45.25 L47.033375,45.25 C45.997875,45.25 45.158375,46.0895 45.158375,47.125 L45.158375,60.25 L5.625,60.25 C4.591125,60.25 3.75,59.408875 3.75,58.375 L3.75,18.75 L60.25,18.75 L60.25,45.25 Z M60.25,14.013125 C60.25,14.068625 60.25,14.0855 60.25,14.083125 C60.25,14.190625 60.25,14.44525 60.25,14.999875 L3.75,14.999875 C3.75,13.24225 3.75,14.3095 3.75,9.374875 C3.75,8.341 4.591125,7.499875 5.625,7.499875 L7.283375,7.499875 L7.283375,9.374875 C7.283375,10.410375 8.122875,11.249875 9.158375,11.249875 C10.193875,11.249875 11.033375,10.410375 11.033375,9.374875 L11.033375,7.5 L22.408375,7.5 L22.408375,9.375 C22.408375,10.4105 23.247875,11.25 24.283375,11.25 C25.318875,11.25 26.158375,10.4105 26.158375,9.375 L26.158375,7.5 L37.408375,7.5 L37.408375,9.375 C37.408375,10.4105 38.247875,11.25 39.283375,11.25 C40.318875,11.25 41.158375,10.4105 41.158375,9.375 L41.158375,7.5 L52.533375,7.5 L52.533375,9.375 C52.533375,10.4105 53.372875,11.25 54.408375,11.25 C55.443875,11.25 56.283375,10.4105 56.283375,9.375 L56.283375,7.5 L58.375,7.5 C59.408875,7.5 60.25,8.341125 60.25,9.375 C60.25,12.793625 60.25,13.772625 60.25,14.013125 Z"/>
    <path fill="#000" d="M20.658375 22.5L13.033375 22.5C11.997875 22.5 11.158375 23.3395 11.158375 24.375L11.158375 31.875C11.158375 32.9105 11.997875 33.75 13.033375 33.75L20.658375 33.75C21.693875 33.75 22.533375 32.9105 22.533375 31.875L22.533375 24.375C22.533375 23.3395 21.693875 22.5 20.658375 22.5zM18.783375 30L14.908375 30 14.908375 26.25 18.783375 26.25 18.783375 30zM20.658375 37.75L13.033375 37.75C11.997875 37.75 11.158375 38.5895 11.158375 39.625L11.158375 47.125C11.158375 48.1605 11.997875 49 13.033375 49L20.658375 49C21.693875 49 22.533375 48.1605 22.533375 47.125L22.533375 39.625C22.533375 38.5895 21.693875 37.75 20.658375 37.75zM18.783375 45.25L14.908375 45.25 14.908375 41.5 18.783375 41.5 18.783375 45.25zM35.658375 22.5L28.158375 22.5C27.122875 22.5 26.283375 23.3395 26.283375 24.375L26.283375 31.875C26.283375 32.9105 27.122875 33.75 28.158375 33.75L35.658375 33.75C36.693875 33.75 37.533375 32.9105 37.533375 31.875L37.533375 24.375C37.533375 23.3395 36.693875 22.5 35.658375 22.5zM33.783375 30L30.033375 30 30.033375 26.25 33.783375 26.25 33.783375 30zM35.658375 37.75L28.158375 37.75C27.122875 37.75 26.283375 38.5895 26.283375 39.625L26.283375 47.125C26.283375 48.1605 27.122875 49 28.158375 49L35.658375 49C36.693875 49 37.533375 48.1605 37.533375 47.125L37.533375 39.625C37.533375 38.5895 36.693875 37.75 35.658375 37.75zM33.783375 45.25L30.033375 45.25 30.033375 41.5 33.783375 41.5 33.783375 45.25zM50.783375 22.5L43.158375 22.5C42.122875 22.5 41.283375 23.3395 41.283375 24.375L41.283375 31.875C41.283375 32.9105 42.122875 33.75 43.158375 33.75L50.783375 33.75C51.818875 33.75 52.658375 32.9105 52.658375 31.875L52.658375 24.375C52.658375 23.3395 51.818875 22.5 50.783375 22.5zM48.908375 30L45.033375 30 45.033375 26.25 48.908375 26.25 48.908375 30z"/>
  </g>
</svg>
