
<svg xmlns="http://www.w3.org/2000/svg" width="64" height="64" viewBox="0 0 64 64">
  <g fill="none">
    <path fill="#5AB963" d="M50.875,7.5 L47.125,7.5 C46.0895,7.5 45.25,8.3395 45.25,9.375 C45.25,10.562125 45.25,19.4115 45.25,20.625 C45.25,21.6605 46.0895,22.5 47.125,22.5 C48.1605,22.5 49,21.6605 49,20.625 L49,18.75 L50.875,18.75 C53.976625,18.75 56.5,16.226625 56.5,13.125 C56.5,10.023375 53.976625,7.5 50.875,7.5 Z M50.875,15 L49,15 C49,13.643 49,12.607 49,11.25 L50.875,11.25 C51.908875,11.25 52.75,12.091125 52.75,13.125 C52.75,14.158875 51.908875,15 50.875,15 Z"/>
    <path fill="#000" d="M62.125,0 L39.625,0 C38.5895,0 37.75,0.8395 37.75,1.875 L37.75,28.125 C37.75,29.1605 38.5895,30 39.625,30 L49,30 L49,60.25 L47.125,60.25 C46.0895,60.25 45.25,61.0895 45.25,62.125 C45.25,63.1605 46.0895,64 47.125,64 L54.625,64 C55.6605,64 56.5,63.1605 56.5,62.125 C56.5,61.0895 55.6605,60.25 54.625,60.25 L52.75,60.25 L52.75,30 L62.125,30 C63.1605,30 64,29.1605 64,28.125 L64,1.875 C64,0.8395 63.1605,0 62.125,0 Z M60.25,26.25 L41.5,26.25 L41.5,3.75 L60.25,3.75 L60.25,26.25 Z"/>
    <path fill="#5AB963" d="M39.013125,38.8885 L40.70075,37.200875 C41.433125,36.468625 41.433125,35.281375 40.700875,34.549125 C39.96875,33.817 38.7815,33.817 38.04925,34.549125 L36.4445,36.153875 L34.508625,30.346125 C33.741625,28.045625 31.597125,26.5 29.172125,26.5 L12.077875,26.5 C9.653,26.5 7.508375,28.045625 6.7415,30.34625 L4.759,36.294 L3.27525,34.628 C2.58625,33.8545 1.401375,33.78625 0.628,34.474875 C-0.145375,35.163625 -0.21375,36.34875 0.474875,37.122125 L2.125875,38.97575 C0.83175,40.00725 0,41.595375 0,43.375 C0,43.574625 0,58.179 0,58.375 C0,61.476625 2.523375,64 5.625,64 C8.726625,64 11.25,61.476625 11.25,58.375 L11.25,56.5 L30,56.5 L30,58.375 C30,61.476625 32.523375,64 35.625,64 C38.726625,64 41.25,61.476625 41.25,58.375 C41.25,58.179 41.25,43.574625 41.25,43.375 C41.25,41.54475 40.370875,39.91625 39.013125,38.8885 Z M10.299125,31.532125 C10.55475,30.76525 11.2695,30.25 12.077875,30.25 L29.172125,30.25 C29.9805,30.25 30.695375,30.76525 30.950875,31.532125 L33.023625,37.75 L8.2265,37.75 L10.299125,31.532125 Z M7.5,58.375 C7.5,59.408875 6.658875,60.25 5.625,60.25 C4.591125,60.25 3.75,59.408875 3.75,58.375 L3.75,56.5 L7.5,56.5 L7.5,58.375 Z M37.5,58.375 C37.5,59.408875 36.659,60.25 35.625,60.25 C34.591125,60.25 33.75,59.408875 33.75,58.375 L33.75,56.5 L37.5,56.5 L37.5,58.375 Z M37.5,52.75 L3.75,52.75 L3.75,43.375 C3.75,42.341125 4.591125,41.5 5.625,41.5 L35.625,41.5 C36.658875,41.5 37.5,42.341125 37.5,43.375 L37.5,52.75 Z"/>
    <path fill="#000" d="M24.375,45.25 L16.875,45.25 C15.8395,45.25 15,46.0895 15,47.125 C15,48.1605 15.8395,49 16.875,49 L24.375,49 C25.4105,49 26.25,48.1605 26.25,47.125 C26.25,46.0895 25.4105,45.25 24.375,45.25 Z"/>
  </g>
</svg>
