
<svg xmlns="http://www.w3.org/2000/svg" width="64" height="64" viewBox="0 0 64 64">
  <g fill="none">
    <path fill="#5AB963" d="M54.50025,48.9995 L48.875375,48.9995 L48.875375,1.87575 C48.875375,0.84025 48.035875,0.00075 47.000375,0.00075 C45.964875,0.00075 45.125375,0.84025 45.125375,1.87575 L45.125375,48.9995 L39.5005,48.9995 C34.33125,48.9995 30.12575,53.205 30.12575,58.37425 C30.12575,59.40975 30.96525,60.24925 32.00075,60.24925 L33.87575,60.24925 L33.87575,62.12425 C33.87575,63.15975 34.71525,63.99925 35.75075,63.99925 C36.78625,63.99925 37.62575,63.15975 37.62575,62.12425 L37.62575,60.24925 L41.375625,60.24925 L41.375625,62.12425 C41.375625,63.15975 42.215125,63.99925 43.250625,63.99925 C44.286125,63.99925 45.125625,63.15975 45.125625,62.12425 L45.125625,60.24925 L48.8755,60.24925 L48.8755,62.12425 C48.8755,63.15975 49.715,63.99925 50.7505,63.99925 C51.786,63.99925 52.6255,63.15975 52.6255,62.12425 L52.6255,60.24925 L56.375375,60.24925 L56.375375,62.12425 C56.375375,63.15975 57.214875,63.99925 58.250375,63.99925 C59.285875,63.99925 60.125375,63.15975 60.125375,62.12425 L60.125375,60.24925 L62.000375,60.24925 C63.035875,60.24925 63.875375,59.40975 63.875375,58.37425 C63.875,53.205 59.6695,48.9995 54.50025,48.9995 Z M34.197125,56.499375 C34.971,54.31675 37.056125,52.7495 39.500625,52.7495 L54.50025,52.7495 C56.94475,52.7495 59.03,54.316875 59.803875,56.499375 L34.197125,56.499375 Z"/>
    <path fill="#000" d="M20.751125,43.374625 C19.715625,43.374625 18.876125,44.214125 18.876125,45.249625 C18.876125,47.317375 17.193875,48.9995 15.12625,48.9995 C13.058625,48.9995 11.376375,47.31725 11.376375,45.249625 C11.376375,44.214125 10.536875,43.374625 9.501375,43.374625 C8.465875,43.374625 7.626375,44.214125 7.626375,45.249625 C7.626375,49.385 10.99075,52.749375 15.126125,52.749375 C19.2615,52.749375 22.625875,49.385 22.625875,45.249625 C22.626125,44.214125 21.786625,43.374625 20.751125,43.374625 Z"/>
    <path fill="#5AB963" d="M18.876125,26.500125 L18.876125,1.87575 C18.876125,0.84025 18.036625,0.00075 17.001125,0.00075 C15.965625,0.00075 15.126125,0.84025 15.126125,1.87575 L15.126125,27.148 C13.180375,27.838875 11.4425,29.056625 10.128,30.677625 C9.33075,30.395625 8.486875,30.250125 7.626375,30.250125 C3.0015,30.250125 -0.54625,34.420625 0.2325,39.01125 C0.0065,39.662875 -0.13675,38.2005 3.901875,62.4325 C4.052625,63.336625 4.83475,63.99925 5.751375,63.99925 L24.500875,63.99925 C25.4175,63.99925 26.199625,63.336625 26.350375,62.4325 C30.3975,38.149375 30.226125,39.687 30.043875,39.0835 C30.844125,32.3195 25.53975,26.500125 18.876125,26.500125 Z M22.91275,60.24925 L7.339875,60.24925 L4.214875,41.49975 L26.037625,41.49975 L22.91275,60.24925 Z M3.876625,37.74975 C3.876625,35.682 5.558875,33.999875 7.6265,33.999875 C8.37225,33.999875 9.091875,34.21775 9.70775,34.62975 C10.139,34.918375 10.670375,35.01525 11.175875,34.8975 C11.681125,34.77975 12.115125,34.457875 12.3745,34.0085 C13.711875,31.69025 16.20325,30.25 18.876125,30.25 C23.0115,30.25 26.375875,33.614375 26.375875,37.74975 L3.876625,37.74975 Z"/>
    <circle cx="9.594" cy="9.626" r="1.875" fill="#000"/>
    <path fill="#000" d="M5.7515,15.250375 C2.65,15.250375 0.126625,17.773625 0.126625,20.87525 C0.126625,23.976875 2.649875,26.500125 5.7515,26.500125 C8.853125,26.500125 11.376375,23.97675 11.376375,20.87525 C11.376375,17.77375 8.853,15.250375 5.7515,15.250375 Z M5.7515,22.750125 C4.717625,22.750125 3.8765,21.909 3.8765,20.875125 C3.8765,19.84125 4.717625,19.000125 5.7515,19.000125 C6.785375,19.000125 7.6265,19.84125 7.6265,20.875125 C7.6265,21.909125 6.785375,22.750125 5.7515,22.750125 Z"/>
  </g>
</svg>
