
<svg xmlns="http://www.w3.org/2000/svg" width="64" height="64" viewBox="0 0 64 64">
  <g fill="none">
    <path fill="#5AB963" d="M62.811875,28.5645 C61.739375,27.174 60.1185,26.376375 58.364875,26.376375 L52.576375,26.376375 C52.60025,25.7545 52.61225,25.1295 52.61225,24.501875 C52.61225,23.466625 51.773,22.627375 50.73775,22.627375 L1.8745,22.627375 C0.83925,22.62725 -1.57984736e-13,23.466625 -1.57984736e-13,24.501875 C-1.57984736e-13,35.649125 3.790375,45.95175 10.128,52.620125 L1.8745,52.620125 C1.22475,52.620125 0.621375,52.9565 0.279875,53.509125 C-0.061625,54.06175 -0.092625,54.751875 0.19775,55.332875 C2.828,60.59325 8.2495,63.99225 14.01,63.99225 L38.60525,63.99225 C44.36375,63.99225 49.784,60.59325 52.41425,55.332875 C52.70475,54.75175 52.67375,54.06175 52.332125,53.509125 C51.990625,52.9565 51.38725,52.620125 50.7375,52.620125 L42.484,52.620125 C43.610875,51.4345 44.65725,50.134125 45.616125,48.734375 C49.61175,48.274625 53.525125,46.65275 56.7275,44.1125 C60.225375,41.33775 62.740125,37.5705 63.8085,33.50475 C64.263,31.775625 63.899625,29.975 62.811875,28.5645 Z M35.741375,36.5255 L35.741375,41.37275 L31.99225,41.37275 L31.99225,36.5255 L33.86675,34.651 L35.741375,36.5255 Z M47.19925,56.344125 C44.99675,58.762125 41.87075,60.243125 38.6055,60.243125 L14.010125,60.243125 C10.74325,60.243125 7.616125,58.762125 5.41325,56.344125 L47.19925,56.344125 Z M36.884625,52.62 L15.727625,52.62 C8.71825,47.335 4.243,37.45625 3.7875,26.376375 L31.99225,26.376375 L31.99225,31.223625 L28.79225,34.423625 C28.44075,34.775125 28.243125,35.251875 28.243125,35.749125 L28.243125,43.24725 C28.243125,44.2825 29.082375,45.12175 30.117625,45.12175 L37.61575,45.12175 C38.651,45.12175 39.49025,44.2825 39.49025,43.24725 L39.49025,35.749125 C39.49025,35.252 39.292625,34.77525 38.941125,34.423625 L35.741125,31.223625 L35.741125,26.351375 L48.8245,26.351375 C48.419375,36.21175 44.6285,46.781375 36.884625,52.62 Z M60.182625,32.55175 C58.714625,38.1385 53.924375,42.709 48.1465,44.40875 C50.257625,40.15625 51.682875,35.292625 52.286125,30.1255 L58.364625,30.1255 C59.161875,30.1255 59.633125,30.582 59.842875,30.854125 C60.2155,31.337 60.33925,31.95575 60.182625,32.55175 Z"/>
    <path fill="#000" d="M39.74125 15.482125C39.477125 15.245625 38.490625 14.15325 38.490625 13.129625 38.490625 12.147875 39.423125 11.0695 39.741125 10.777125 41.33575 9.34925 42.214 7.52175 42.214 5.6315 42.214 3.74125 41.335875 1.91375 39.741125.485875 38.97-.20475 37.784875-.139375 37.094125.631875 36.4035 1.40325 36.468875 2.58825 37.240125 3.278875 38.04125 3.996375 38.464875 4.809875 38.464875 5.631375 38.464875 6.452875 38.0415 7.266625 37.24025 7.984 36.984375 8.213125 34.741625 10.303 34.741625 13.129625 34.741625 15.95625 36.9845 18.046125 37.24025 18.27525 38.011875 18.966125 39.196875 18.90025 39.88725 18.129125 40.57775 17.357875 40.5125 16.17275 39.74125 15.482125zM28.494 15.482125C28.229875 15.245625 27.243375 14.15325 27.243375 13.129625 27.243375 12.147875 28.175875 11.0695 28.493875 10.777125 30.0885 9.34925 30.96675 7.52175 30.96675 5.6315 30.96675 3.74125 30.088625 1.91375 28.493875.485875 27.722625-.20475 26.537625-.139375 25.846875.631875 25.15625 1.40325 25.221625 2.58825 25.992875 3.278875 26.794 3.996375 27.217625 4.809875 27.217625 5.631375 27.217625 6.452875 26.79425 7.266625 25.993 7.984 25.73725 8.213125 23.494375 10.303 23.494375 13.129625 23.494375 15.95625 25.73725 18.046125 25.993 18.27525 26.764625 18.966125 27.949625 18.90025 28.64 18.129125 29.3305 17.357875 29.265125 16.17275 28.494 15.482125zM17.24675 15.482125C16.982625 15.245625 15.996125 14.15325 15.996125 13.129625 15.996125 12.147875 16.928625 11.0695 17.246625 10.777125 18.84125 9.34925 19.7195 7.52175 19.7195 5.6315 19.7195 3.74125 18.841375 1.91375 17.246625.485875 16.475375-.20475 15.29025-.139375 14.599625.631875 13.909 1.40325 13.974375 2.58825 14.745625 3.278875 15.54675 3.996375 15.970375 4.809875 15.970375 5.631375 15.970375 6.452875 15.547 7.266625 14.74575 7.984 14.489875 8.213125 12.247125 10.303 12.247125 13.129625 12.247125 15.95625 14.49 18.046125 14.74575 18.27525 15.51725 18.966125 16.702375 18.90025 17.39275 18.129125 18.08325 17.357875 18.017875 16.17275 17.24675 15.482125z"/>
  </g>
</svg>
