
<svg xmlns="http://www.w3.org/2000/svg" width="57" height="64" viewBox="0 0 57 64">
  <g fill="none">
    <path fill="#5AB963" d="M54.375,0 L20.625,0 C19.663375,0 18.835125,0.740375 18.7575,1.726125 C18.754625,1.762 18.752875,1.79775 18.752125,1.8335 C18.75175,1.8475 18.75,1.861 18.75,1.875 L18.75,11.25 L1.875,11.25 C0.8395,11.25 0,12.0895 0,13.125 L0,62.125 C0,63.1605 0.8395,64 1.875,64 L35.625,64 C36.6605,64 37.5,63.1605 37.5,62.125 L37.5,52.5 L54.375,52.5 C55.4105,52.5 56.25,51.6605 56.25,50.625 L56.25,1.875 C56.25,0.8395 55.4105,0 54.375,0 Z M22.5,5.625 L30,11.25 L22.5,11.25 L22.5,5.625 Z M33.75,60.25 L3.75,60.25 L3.75,15 L33.75,15 L33.75,60.25 Z M52.5,48.75 L37.5,48.75 L37.5,45 L46.875,45 C47.9105,45 48.75,44.1605 48.75,43.125 C48.75,42.0895 47.9105,41.25 46.875,41.25 L37.5,41.25 L37.5,37.5 L46.875,37.5 C47.9105,37.5 48.75,36.6605 48.75,35.625 C48.75,34.5895 47.9105,33.75 46.875,33.75 L37.5,33.75 L37.5,30 L46.875,30 C47.9105,30 48.75,29.1605 48.75,28.125 C48.75,27.0895 47.9105,26.25 46.875,26.25 L37.5,26.25 L37.5,22.5 L46.875,22.5 C47.9105,22.5 48.75,21.6605 48.75,20.625 C48.75,19.5895 47.9105,18.75 46.875,18.75 L37.5,18.75 L37.5,13.125 C37.5,13.11175 37.49825,13.099 37.498,13.08575 C37.486125,12.5365 37.234625,12.00675 36.780375,11.65025 C36.77,11.642125 36.760625,11.633 36.75,11.625 L26.25,3.75 L52.5,3.75 L52.5,48.75 Z"/>
    <path fill="#000" d="M28.125 30L26.25 30C26.25 26.51175 23.856125 23.572 20.625 22.737375L20.625 20.625C20.625 19.5895 19.7855 18.75 18.75 18.75 17.7145 18.75 16.875 19.5895 16.875 20.625L16.875 22.737375C13.643875 23.572 11.25 26.51175 11.25 30L9.375 30C8.3395 30 7.5 30.8395 7.5 31.875 7.5 32.9105 8.3395 33.75 9.375 33.75 11.159625 33.75 25.9125 33.75 28.125 33.75 29.1605 33.75 30 32.9105 30 31.875 30 30.8395 29.1605 30 28.125 30zM15 30C15 27.93225 16.68225 26.25 18.75 26.25 20.81775 26.25 22.5 27.93225 22.5 30L15 30zM28.125 41.25L9.375 41.25C8.3395 41.25 7.5 42.0895 7.5 43.125 7.5 44.1605 8.3395 45 9.375 45L28.125 45C29.1605 45 30 44.1605 30 43.125 30 42.0895 29.1605 41.25 28.125 41.25zM28.125 48.75L9.375 48.75C8.3395 48.75 7.5 49.5895 7.5 50.625 7.5 51.6605 8.3395 52.5 9.375 52.5L28.125 52.5C29.1605 52.5 30 51.6605 30 50.625 30 49.5895 29.1605 48.75 28.125 48.75z"/>
  </g>
</svg>
