
<svg xmlns="http://www.w3.org/2000/svg" width="64" height="57" viewBox="0 0 64 57">
  <g fill="none">
    <path fill="#5AB963" d="M58.375,0.05825 L5.625,0.05825 C2.523375,0.05825 0,2.581625 0,5.68325 L0,28.18325 C0,31.284875 2.523375,33.80825 5.625,33.80825 C7.55225,33.80825 56.446625,33.80825 58.375,33.80825 C61.476625,33.80825 64,31.284875 64,28.18325 L64,5.68325 C64,2.581625 61.476625,0.05825 58.375,0.05825 Z M11.9015,30.05825 L12.849875,26.264375 C12.978875,26.2925 13.1125,26.30825 13.25,26.30825 L50.75,26.30825 C50.8875,26.30825 51.021,26.2925 51.150125,26.264375 L52.098625,30.05825 L11.9015,30.05825 Z M13.7765,22.55825 L14.714,18.80825 L49.286125,18.80825 L50.223625,22.55825 L13.7765,22.55825 Z M60.25,28.18325 C60.25,29.217125 59.408875,30.05825 58.375,30.05825 L55.964,30.05825 L52.569,16.4785 C52.360375,15.643875 51.610375,15.05825 50.75,15.05825 L13.25,15.05825 C12.389625,15.05825 11.639625,15.643875 11.431,16.4785 L8.036,30.05825 L5.625,30.05825 C4.591125,30.05825 3.75,29.217125 3.75,28.18325 L3.75,5.68325 C3.75,4.649375 4.591125,3.80825 5.625,3.80825 L58.375,3.80825 C59.408875,3.80825 60.25,4.649375 60.25,5.68325 L60.25,28.18325 Z"/>
    <path fill="#000" d="M20.00875 48.6265C21.78825 47.440125 22.850625 45.455 22.850625 43.316375 22.850625 41.17775 21.78825 39.19275 20.00875 38.0065 19.14725 37.43225 17.983 37.665 17.408625 38.526625 16.83425 39.38825 17.067125 40.552375 17.92875 41.12675 18.6735 41.62325 19.100625 42.4215 19.100625 43.316625 19.100625 44.21175 18.6735 45.01 17.92875 45.5065 16.14925 46.692875 15.086875 48.678 15.086875 50.816625 15.086875 52.95525 16.149375 54.940375 17.92875 56.126625 18.79025 56.700875 19.9545 56.46825 20.528875 55.6065 21.10325 54.744875 20.870375 53.58075 20.00875 53.006375 19.264 52.509875 18.83675 51.71175 18.83675 50.8165 18.83675 49.92125 19.263875 49.123125 20.00875 48.6265zM33.13375 48.6265C34.91325 47.440125 35.975625 45.455 35.975625 43.316375 35.975625 41.17775 34.91325 39.19275 33.13375 38.0065 32.27225 37.43225 31.108125 37.665 30.533625 38.526625 29.95925 39.38825 30.192125 40.552375 31.05375 41.12675 31.7985 41.62325 32.225625 42.4215 32.225625 43.316625 32.225625 44.21175 31.7985 45.01 31.05375 45.5065 29.27425 46.692875 28.211875 48.678 28.211875 50.816625 28.211875 52.95525 29.274375 54.940375 31.05375 56.126625 31.91525 56.700875 33.0795 56.46825 33.653875 55.6065 34.22825 54.744875 33.995375 53.58075 33.13375 53.006375 32.389 52.509875 31.96175 51.71175 31.96175 50.8165 31.96175 49.92125 32.388875 49.123125 33.13375 48.6265zM46.25875 48.6265C48.03825 47.440125 49.100625 45.455 49.100625 43.316375 49.100625 41.17775 48.03825 39.19275 46.25875 38.0065 45.397375 37.43225 44.233125 37.665 43.658625 38.526625 43.08425 39.38825 43.317125 40.552375 44.17875 41.12675 44.9235 41.62325 45.350625 42.4215 45.350625 43.316625 45.350625 44.21175 44.9235 45.01 44.17875 45.5065 42.39925 46.692875 41.336875 48.678 41.336875 50.816625 41.336875 52.95525 42.399375 54.940375 44.17875 56.126625 45.04025 56.700875 46.2045 56.46825 46.778875 55.6065 47.35325 54.744875 47.120375 53.58075 46.25875 53.006375 45.514 52.509875 45.08675 51.71175 45.08675 50.8165 45.08675 49.92125 45.513875 49.123125 46.25875 48.6265zM20.75 7.55825L17 7.55825C15.9645 7.55825 15.125 8.39775 15.125 9.43325 15.125 10.46875 15.9645 11.30825 17 11.30825L20.75 11.30825C21.7855 11.30825 22.625 10.46875 22.625 9.43325 22.625 8.39775 21.7855 7.55825 20.75 7.55825zM32 7.55825L28.25 7.55825C27.2145 7.55825 26.375 8.39775 26.375 9.43325 26.375 10.46875 27.2145 11.30825 28.25 11.30825L32 11.30825C33.0355 11.30825 33.875 10.46875 33.875 9.43325 33.875 8.39775 33.0355 7.55825 32 7.55825z"/>
    <circle cx="39.5" cy="9.434" r="1.875" fill="#000"/>
    <circle cx="47" cy="9.434" r="1.875" fill="#000"/>
  </g>
</svg>
