
<svg xmlns="http://www.w3.org/2000/svg" width="64" height="57" viewBox="0 0 64 57">
  <g fill="none">
    <path fill="#5AB963" d="M62.081,33.550375 C63.899875,31.30725 64.429625,28.618125 63.6535,25.555375 C62.9005,22.583875 60.69975,20.19125 57.766875,19.155375 C54.77825,18.0995 51.49375,18.594125 48.9815,20.478375 C48.589375,20.7725 47.274875,21.724625 46.803,21.91325 C46.55875,22.010875 46.346875,22.15475 46.172375,22.329875 C36.52075,27.88825 24.19625,27.271625 15.13875,20.47825 C14.692875,20.143875 14.221875,19.854125 13.732375,19.608125 C13.722125,19.6025 13.711375,19.597625 13.701,19.59225 C11.425125,18.459125 8.74625,18.287625 6.2575,19.1665 C3.302625,20.21025 1.091,22.598625 0.34175,25.55525 C-0.384625,28.42125 0.23475,31.341875 1.896875,33.5735 C1.169625,34.542375 0.63275,35.643 0.34175,36.79175 C-0.439625,39.875 0.120625,42.582 2.007125,44.8375 C3.873875,47.0695 6.654875,48.4275 8.758875,49.710125 C15.761125,53.9785 23.818625,56.234625 32.060125,56.234625 C45.77875,56.234625 54.185625,50.426875 59.4635,47.209625 C63.002375,45.05275 64.68625,40.866125 63.65375,36.79175 C63.360125,35.633875 62.817125,34.524875 62.081,33.550375 Z M57.514,44.011625 L53.411875,46.51225 C40.24175,54.540375 23.878625,54.540375 10.7085,46.51225 C6.529625,43.965 2.7815,42.412375 3.9725,37.712125 C4.11775,37.13925 4.369375,36.58425 4.707875,36.077625 C9.643375,38.997375 11.136875,39.979875 14.363,41.3655 L15.277125,43.65075 C15.57,44.383 16.27325,44.8285 17.0165,44.8285 C17.248,44.8285 17.48325,44.78525 17.711375,44.694 C18.4205,44.410375 18.859375,43.741625 18.886375,43.024625 C20.999375,43.672875 23.1605,44.165 25.353125,44.495375 L26.5135,47.39625 C26.89725,48.356 27.98675,48.82375 28.947875,48.4395 C29.908125,48.055375 30.37525,46.9655 29.991,46.00525 L29.56,44.927875 C30.390875,44.974125 31.2245,44.998375 32.060125,44.998375 C33.613625,44.998375 35.160625,44.918 36.695125,44.75925 L37.749875,47.396125 C38.134,48.356875 39.224125,48.823375 40.184125,48.4395 C41.1445,48.055375 41.611625,46.9655 41.227375,46.00525 L40.505,44.19925 C43.170875,43.68975 45.782625,42.938875 48.309,41.957375 L48.98625,43.65075 C49.279125,44.383 49.98225,44.8285 50.725625,44.8285 C50.957125,44.8285 51.192375,44.78525 51.420375,44.694 C52.38075,44.309875 52.847875,43.22 52.463625,42.259625 L51.7415,40.454375 C54.19275,39.256125 58.213125,36.812 59.280375,36.066875 C59.6225,36.57625 59.876375,37.135125 60.022625,37.712 C60.659,40.222125 59.67425,42.694875 57.514,44.011625 Z M53.411375,35.27525 C40.831125,42.943625 24.79875,43.656625 10.68675,35.2625 C5.742125,32.337375 6.271,32.68275 5.631,32.14375 C4.07425,30.752 3.426875,28.628 3.972375,26.475625 C4.419875,24.71 5.70725,23.33325 7.504875,22.698375 C8.792,22.24375 10.156625,22.24625 11.38025,22.672125 L15.277,32.414125 C15.569875,33.146375 16.273125,33.591875 17.016375,33.591875 C17.247875,33.591875 17.483125,33.548625 17.71125,33.457375 C18.6715,33.07325 19.138625,31.983375 18.754375,31.023125 L16.723625,25.946125 C18.88475,27.131125 21.165125,28.053 23.5305,28.702375 L26.51325,36.1595 C26.806125,36.89175 27.509375,37.33725 28.252625,37.33725 C28.484125,37.33725 28.719375,37.294 28.9475,37.20275 C29.90775,36.818625 30.374875,35.72875 29.990625,34.768375 L27.915,29.57925 C29.278625,29.75375 30.66175,29.843375 32.05975,29.843375 C33.103375,29.843375 34.13875,29.793 35.164125,29.6955 L37.7495,36.15925 C38.042375,36.8915 38.745625,37.337 39.488875,37.337 C39.720375,37.337 39.955625,37.29375 40.183625,37.2025 C41.144,36.818375 41.611125,35.7285 41.226875,34.76825 L38.961,29.1035 C41.6075,28.52575 44.159375,27.61275 46.5725,26.380375 L48.985875,32.41375 C49.27875,33.146 49.982,33.5915 50.72525,33.5915 C50.95675,33.5915 51.192,33.54825 51.420125,33.457 C52.380375,33.072875 52.8475,31.983 52.46325,31.022625 L49.837875,24.45925 C50.308,24.14375 50.772,23.81625 51.228125,23.47425 C52.736,22.343375 54.713875,22.049 56.518875,22.6865 C58.294125,23.3135 59.571125,24.6945 60.022375,26.475 C61.213375,31.1745 57.581125,32.7335 53.411375,35.27525 Z"/>
    <path fill="#000" d="M23.76625 10.93725C25.543625 9.75225 26.60475 7.769625 26.60475 5.6335 26.60475 3.4975 25.543625 1.51475 23.76625.329875 22.9055-.24375 21.742875-.011375 21.16925.84925 20.5955 1.709875 20.828 2.872625 21.688625 3.44625 22.4325 3.942125 22.85925 4.7395 22.85925 5.6335 22.85925 6.5275 22.4325 7.324875 21.688625 7.820875 19.91125 9.00575 18.850125 10.988375 18.850125 13.1245 18.850125 15.2605 19.91125 17.24325 21.688625 18.42825 22.549625 19.002125 23.712375 18.769125 24.285625 17.908875 24.859375 17.04825 24.626875 15.8855 23.76625 15.311875 23.022375 14.816 22.595625 14.018625 22.595625 13.1245 22.595625 12.230375 23.022375 11.433125 23.76625 10.93725zM33.13 10.93725C34.907375 9.75225 35.9685 7.769625 35.9685 5.6335 35.9685 3.4975 34.907375 1.51475 33.13.329875 32.26925-.24375 31.10675-.011375 30.533.84925 29.95925 1.709875 30.19175 2.872625 31.052375 3.44625 31.79625 3.942125 32.223 4.7395 32.223 5.6335 32.223 6.5275 31.79625 7.324875 31.052375 7.820875 29.275 9.00575 28.213875 10.988375 28.213875 13.1245 28.213875 15.2605 29.275 17.24325 31.052375 18.42825 31.913375 19.002125 33.076 18.769125 33.649375 17.908875 34.22325 17.04825 33.990625 15.8855 33.13 15.311875 32.386125 14.816 31.959375 14.018625 31.959375 13.1245 31.959375 12.230375 32.386125 11.433125 33.13 10.93725zM42.493625 10.93725C44.271 9.75225 45.332125 7.769625 45.332125 5.6335 45.332125 3.4975 44.271 1.51475 42.493625.329875 41.633-.24375 40.47025-.011375 39.896625.84925 39.32275 1.709875 39.555375 2.872625 40.416 3.44625 41.159875 3.942125 41.586625 4.7395 41.586625 5.6335 41.586625 6.5275 41.159875 7.324875 40.416 7.820875 38.638625 9.00575 37.5775 10.988375 37.5775 13.1245 37.5775 15.2605 38.638625 17.24325 40.416 18.42825 41.277 19.002125 42.439625 18.769125 43.013 17.908875 43.58675 17.04825 43.35425 15.8855 42.493625 15.311875 41.74975 14.816 41.323 14.018625 41.323 13.1245 41.323125 12.230375 41.74975 11.433125 42.493625 10.93725z"/>
  </g>
</svg>
