
<svg xmlns="http://www.w3.org/2000/svg" width="49" height="64" viewBox="0 0 49 64">
  <g fill="none">
    <path fill="#5AB963" d="M43.125,0 L5.625,0 C2.523375,0 0,2.523375 0,5.625 L0,58.375 C0,61.476625 2.523375,64 5.625,64 L43.125,64 C46.226625,64 48.75,61.476625 48.75,58.375 L48.75,5.625 C48.75,2.523375 46.226625,0 43.125,0 Z M45,58.375 C45,59.408875 44.158875,60.25 43.125,60.25 L5.625,60.25 C4.591125,60.25 3.75,59.408875 3.75,58.375 L3.75,18.875 L45,18.875 L45,58.375 Z M45,15.125 L3.75,15.125 L3.75,5.625 C3.75,4.591125 4.591125,3.75 5.625,3.75 L43.125,3.75 C44.158875,3.75 45,4.591125 45,5.625 L45,15.125 Z"/>
    <circle cx="39.466" cy="9.375" r="1.875" fill="#000"/>
    <circle cx="31.966" cy="9.375" r="1.875" fill="#000"/>
    <path fill="#000" d="M18.75 7.5L9.375 7.5C8.3395 7.5 7.5 8.3395 7.5 9.375 7.5 10.4105 8.3395 11.25 9.375 11.25L18.75 11.25C19.7855 11.25 20.625 10.4105 20.625 9.375 20.625 8.3395 19.7855 7.5 18.75 7.5zM24.375 22.625C15.060375 22.625 7.5 30.207625 7.5 39.5 7.5 48.804875 15.070125 56.375 24.375 56.375 33.679875 56.375 41.25 48.804875 41.25 39.5 41.25 30.223375 33.705125 22.625 24.375 22.625zM24.375 26.375C30.8945 26.375 36.318125 31.153375 37.329875 37.391625 36.8035 37.54275 36.224875 37.625 35.625 37.625 33.335875 37.625 31.875 36.5145 31.875 35.75 31.875 34.7145 31.0355 33.875 30 33.875 28.9645 33.875 28.125 34.7145 28.125 35.75 28.125 36.5145 26.664125 37.625 24.375 37.625 22.085875 37.625 20.625 36.5145 20.625 35.75 20.625 34.7145 19.7855 33.875 18.75 33.875 17.7145 33.875 16.875 34.7145 16.875 35.75 16.875 36.5145 15.414125 37.625 13.125 37.625 12.525125 37.625 11.9465 37.54275 11.420125 37.391625 12.431875 31.153375 17.8555 26.375 24.375 26.375zM24.375 52.625C17.720875 52.625 12.207875 47.647375 11.36275 41.22025 11.936375 41.3215 12.527875 41.375 13.125 41.375 15.3875 41.375 17.386 40.660125 18.75 39.50825 20.114 40.660125 22.1125 41.375 24.375 41.375 26.6375 41.375 28.636 40.660125 30 39.50825 31.364 40.660125 33.3625 41.375 35.625 41.375 36.222125 41.375 36.813625 41.3215 37.38725 41.22025 36.542125 47.647375 31.029125 52.625 24.375 52.625z"/>
  </g>
</svg>
