<svg width="36" height="24" viewBox="0 0 36 24" fill="none" xmlns="http://www.w3.org/2000/svg">
<path d="M2 24C1.43333 24 0.958667 23.808 0.576 23.424C0.192 23.0413 0 22.5667 0 22C0 21.4333 0.192 20.9587 0.576 20.576C0.958667 20.192 1.43333 20 2 20H34C34.5667 20 35.0413 20.192 35.424 20.576C35.808 20.9587 36 21.4333 36 22C36 22.5667 35.808 23.0413 35.424 23.424C35.0413 23.808 34.5667 24 34 24H2ZM2 14C1.43333 14 0.958667 13.808 0.576 13.424C0.192 13.0413 0 12.5667 0 12C0 11.4333 0.192 10.958 0.576 10.574C0.958667 10.1913 1.43333 10 2 10H34C34.5667 10 35.0413 10.1913 35.424 10.574C35.808 10.958 36 11.4333 36 12C36 12.5667 35.808 13.0413 35.424 13.424C35.0413 13.808 34.5667 14 34 14H2ZM2 4C1.43333 4 0.958667 3.80867 0.576 3.426C0.192 3.042 0 2.56667 0 2C0 1.43333 0.192 0.958 0.576 0.574C0.958667 0.191334 1.43333 0 2 0H34C34.5667 0 35.0413 0.191334 35.424 0.574C35.808 0.958 36 1.43333 36 2C36 2.56667 35.808 3.042 35.424 3.426C35.0413 3.80867 34.5667 4 34 4H2Z" fill="white"/>
</svg>